<svg xmlns="http://www.w3.org/2000/svg" version="1.1" xmlns:xlink="http://www.w3.org/1999/xlink" xmlns:svgjs="http://svgjs.dev/svgjs" viewBox="0 0 9.9648193359375 11.364498769129884"><g transform="matrix(0.8571428571428571,0,0,0.8571428571428571,1.4235456194196434,7.829242509392928)"><g transform="matrix(1,0,0,1,0,0)" clip-path="url(#SvgjsClipPath119024)"><g clip-path="url(#SvgjsClipPath1190227b4a1454-2d34-440f-8ffc-ea40284eee5e)"><path d=" M 4.292886349220815 -3.816360891905023 L 4.750419130193253 -3.7645260830414093 L 4.750419130193253 -7.356725603072976 L 3.669030529067961 -6.857809003068592 L 3.669030529067961 -5.371930333181851 L 4.292886349220815 -5.083976678674057 Z M 3.9679078312390117 -6.118152014177881 L 3.7952301701006528 -6.040005919356142 L 3.7952301701006528 -6.30900074306377 L 3.9679078312390117 -6.387199355422351 Z M 3.9679078312390117 -6.528103906770958 L 3.7952301701006528 -6.450010329486061 L 3.7952301701006528 -6.719005153193688 L 3.9679078312390117 -6.797098730478584 Z M 4.257069389094184 -5.794696504764513 L 4.08439172795582 -5.716602927479617 L 4.08439172795582 -5.985650268724086 L 4.257069389094184 -6.0637438460089825 Z M 4.373553285810992 -6.968515970732723 L 4.546230946949356 -7.046662065554462 L 4.546230946949356 -6.777614724309992 L 4.373553285810992 -6.699468629488253 Z M 4.373553285810992 -5.690134088910963 L 4.546230946949356 -5.76822766619586 L 4.546230946949356 -5.499232842488233 L 4.373553285810992 -5.421086747666493 Z" fill="#ff9933" transform="matrix(1,0,0,1,0,0)" fill-rule="nonzero"></path></g><g clip-path="url(#SvgjsClipPath1190227b4a1454-2d34-440f-8ffc-ea40284eee5e)"><path d=" M 5.298912284977027 -3.908003993695303 C 5.367411783231292 -3.9050603935076684 5.4282016380529665 -3.8632214699374496 5.455414544767878 -3.800290525631198 C 5.457569441632652 -3.7956034188937107 5.459411585771369 -3.790778755673267 5.460928886136346 -3.7858482029994924 C 5.474167990259558 -3.7523053764681724 5.481848808729652 -3.7168281548972657 5.4836689795891775 -3.680813129314359 L 5.4836689795891775 -3.3834588357117457 C 5.514408353369538 -3.3604870628402246 5.532510360241597 -3.3243609071901785 5.532510288852768 -3.2859862873319425 L 5.532510288852768 -3.2105185868891732 C 5.639278441253702 -3.169659943225657 5.740374699675639 -3.0975008476039694 5.775246344139104 -3.0007635447399617 C 5.788209452460078 -2.9649416952827456 5.783702969199625 -2.925121476817468 5.76306227559163 -2.893102594212701 C 5.773393549885153 -2.8747164717408236 5.780866570209918 -2.8548651547169914 5.785224676139195 -2.8342304354121843 L 5.842993966666021 -2.5611392438308362 L 6.060941744562666 -2.519755424798894 L 6.060941744562666 -6.059384890451049 L 5.194402386660317 -5.659358812321219 L 5.194402386660317 -3.869351086579173 C 5.223758439499344 -3.893868719247355 5.26066758009226 -3.9075195370746854 5.298912284977027 -3.908003993695303 Z M 5.74389337464409 -5.708515226805861 L 5.916571035782455 -5.7868188742381275 L 5.916571035782455 -5.517771532993659 L 5.74389337464409 -5.439730473245604 Z M 5.74389337464409 -4.701649010460171 L 5.916571035782455 -4.779795105281911 L 5.916571035782455 -4.510642728963756 L 5.74389337464409 -4.4325491516788595 Z M 5.519433422178962 -5.225353887854247 L 5.69205856578048 -5.303447465139144 L 5.69205856578048 -5.034452641431518 L 5.519433422178962 -4.9563065466097775 Z" fill="#ff9933" transform="matrix(1,0,0,1,0,0)" fill-rule="nonzero"></path></g><g clip-path="url(#SvgjsClipPath1190227b4a1454-2d34-440f-8ffc-ea40284eee5e)"><path d=" M 3.2114977480955282 -3.7946711491890435 L 3.2114977480955282 -5.583365936510025 L 2.130109146970231 -5.0844493365056405 L 2.130109146970231 -3.1163546433304505 Z M 2.882107757018948 -5.204767013411962 L 3.054785418157307 -5.282860590696858 L 3.054785418157307 -5.013813249452388 L 2.882107757018948 -4.935719672167492 Z M 2.882107757018948 -4.219012846876983 L 3.054785418157307 -4.297211459235564 L 3.054785418157307 -4.028164117991095 L 2.882107757018948 -3.9500705407061982 Z M 2.5587047651424193 -4.595721138648715 L 2.731329908743942 -4.673919751007297 L 2.731329908743942 -4.404819892225984 L 2.5587047651424193 -4.326726314941087 Z M 2.2657094270977374 -4.942914574714923 L 2.4383345706992596 -5.021060669536663 L 2.4383345706992596 -4.752223398439563 L 2.2657094270977374 -4.674129821154667 Z" fill="#ff9933" transform="matrix(1,0,0,1,0,0)" fill-rule="nonzero"></path></g><g clip-path="url(#SvgjsClipPath1190227b4a1454-2d34-440f-8ffc-ea40284eee5e)"><path d=" M 3.821646491132465 -1.9823434702889084 L 3.7732778397004583 -1.963069534267686 C 3.7679969374917635 -1.9609209930941658 3.76453381061333 -1.9557988832799582 3.764507411047747 -1.9500977026675717 L 3.764507411047747 -1.714504032391817 C 3.7645236428505915 -1.7098605159164872 3.7668207741381656 -1.7055214901510638 3.770651962858328 -1.7028976567496077 C 3.774472643433657 -1.7003015480146821 3.7793324743089856 -1.699770311441264 3.783623794458445 -1.7014796832548615 L 3.831992445890446 -1.7207011017392393 C 3.837311625798909 -1.722840355073994 3.84080160157397 -1.727992224075277 3.840815392080004 -1.7337254508761966 L 3.840815392080004 -1.9693191211519512 C 3.840814740159492 -1.974009437544642 3.8385199569595536 -1.9784028686282866 3.8346708402694127 -1.9810830494046883 C 3.8307712542730457 -1.9835341056431925 3.825943710028257 -1.9840012873443014 3.8216464911324697 -1.9823434702889084 Z M 3.9870242146497095 -1.790234320518799 C 3.992855521631273 -1.786216460662624 4.000318685039755 -1.785406964102445 4.006875843576193 -1.7880811015082534 L 4.080768017913691 -1.8175434396769337 C 4.088863999818205 -1.8207684894868237 4.0942002303900615 -1.8285755816853406 4.0942650248822225 -1.8372900335297384 L 4.0942650248822225 -2.1975078187329036 C 4.094216249071511 -2.2046044008367858 4.090707126348166 -2.211230565532272 4.084864385787414 -2.2152587461856905 C 4.078999557698118 -2.2191783739912276 4.071594946466339 -2.2200011085725357 4.0650127568609244 -2.217464482733078 L 3.991120582523427 -2.187844591953872 C 3.982950296698642 -2.1846923658282282 3.977592634605697 -2.1768023712616626 3.9776760930917265 -2.1680454805642224 L 3.9776760930917265 -1.807827695361059 C 3.9777014717510117 -1.800780815266565 3.98119854080393 -1.7941992527231534 3.9870242146497095 -1.7902343205187972 Z M 6.88746273939098 -1.114491173965492 C 6.84161492972742 -1.1160667000707685 6.725603690842191 -1.120163067944488 6.570519404546091 -1.1249946813340053 C 6.5720424131145245 -1.0606606987018603 6.572935211240855 -0.9645010887431207 6.568576255682915 -0.8838866696897822 L 6.524461524735156 -0.8838866696897822 C 6.524461524735156 -0.8838866696897822 6.527770129556241 -1.0164409326804194 6.52635215606149 -1.1264651723655978 C 6.442796754944966 -1.1290910492077257 6.3496306445862505 -1.1321895838814369 6.2511602630064385 -1.1351830834814622 L 6.2511602630064385 -0.9692801845957941 L 5.650044536306416 -0.9766326397537535 L 5.649624396011673 -1.1519361777342416 C 5.536291551505415 -1.1546670896500544 5.426582417041296 -1.1571879314184983 5.326326439208838 -1.1590785627448303 C 5.328112035461484 -1.0995761935022026 5.330317772008872 -0.9805189374801024 5.325171053398295 -0.8838866696897805 L 5.28121387506107 -0.8838866696897805 C 5.28121387506107 -0.8838866696897805 5.285047655250575 -1.0453780954806735 5.2823167433347615 -1.1597612907237833 C 5.183898879291791 -1.1613893343659036 5.095721934933124 -1.1622296149553843 5.024560672511444 -1.1622296149553843 C 4.553635919644147 -1.1622296149553843 4.487568858296195 -1.1521987654184542 4.481529341559302 -1.151043379607918 C 4.483024441364257 -1.151254062159583 4.484477443456807 -1.1516970506024329 4.485835779580395 -1.152356318028982 L 4.459577011159107 -1.2258808696085755 C 4.494868795917314 -1.2383800433771066 4.828565225014977 -1.2402706747034395 5.024613190048286 -1.2402706747034395 C 5.4962206708945365 -1.2402706747034395 6.68668819604184 -1.1993595135030803 6.883733994275147 -1.1925322337135462 C 6.882526090927768 -1.2101781260926483 6.877799512611932 -1.2529799186193395 6.875908881285603 -1.26647692558788 C 6.869134119032914 -1.315108164704097 6.751547354042404 -1.3720896921782808 6.6891040027365944 -1.3740853585782995 L 6.481029521766346 -1.3810176734415185 L 6.480294276250545 -1.4259726849787553 L 6.7200893494737075 -1.4199331682418608 C 6.732429752300594 -1.4195369160280515 6.74437853042441 -1.4242935952174687 6.7530703626108375 -1.433062552452502 C 6.761786293061234 -1.4418323377439934 6.766530884774881 -1.4537887088623904 6.766199746821484 -1.4661486006633195 L 6.760055195010908 -1.6601483817597602 C 6.758389174358625 -1.7100698879677676 6.7301958715334145 -1.7553033191340646 6.6861105031365735 -1.7787854974871191 C 6.611356701691891 -1.8158080174274938 6.529488494463077 -1.836248197831888 6.446105359766046 -1.838708007024489 L 6.416327916376302 -2.23873408515432 C 6.4123257464799615 -2.292399272288333 6.372778040950591 -2.3366858096349503 6.319905718733348 -2.346710140902635 L 5.740532252286169 -2.457207038419395 L 5.666114902580251 -2.8095471930961766 C 5.658926913046485 -2.8431209901347936 5.632273975873498 -2.869090518662313 5.598524832663864 -2.8754041842967553 C 5.492912066073467 -2.8947306378548188 5.303481310682323 -2.924087940949814 5.024718225121979 -2.9478258676026545 L 4.948567796700257 -2.954022936950077 C 4.737132193372082 -2.970145820760745 4.479428640085606 -2.982750029602962 4.173303917830288 -2.985953599350358 C 4.1573723506067015 -2.986120279515097 4.142070488076872 -2.979741339304147 4.130974783135175 -2.968307706971255 C 4.1198384092644345 -2.9569249899399423 4.113858625529988 -2.9414724694325125 4.114431759029765 -2.9255584319814067 L 4.133390589829929 -2.416138324608509 C 4.166522089375972 -2.452170456052982 4.207141574940522 -2.480510882653845 4.252395328315179 -2.4991685503566075 C 4.3012276712737965 -2.5155057765389595 4.353498146652579 -2.5187115541349554 4.403960939642833 -2.5084641543777417 L 5.010223384953418 -2.4007506863136365 C 5.075747729837894 -2.38799701256925 5.123290055396386 -2.330954997593679 5.12402888729127 -2.2642050905229647 L 5.12928064097552 -1.8787788876353675 C 5.129403179575287 -1.8655678929920674 5.124197019026501 -1.852864861253022 5.114838318343817 -1.8435396204140035 C 5.112310812137507 -1.8410288858558674 5.109509904955975 -1.838809299032767 5.106488029985842 -1.83692241077184 C 4.768170057646037 -2.0384847171736125 4.365308032526711 -1.9852844523520927 4.281437526189122 -1.9081361907303611 C 4.436784400169434 -1.9304561438884509 4.5255915549702195 -1.880564483888012 4.570966706802195 -1.8383929018034326 C 4.596647677757293 -1.8146550052833978 4.610977304362295 -1.7810854666900804 4.610354859434124 -1.746119589571042 L 4.607991570276206 -1.6095739937803684 C 4.607741345951375 -1.5972184716319928 4.6124952845735985 -1.5852862750901382 4.621173472023694 -1.5764879455695517 C 4.6298114868904285 -1.5676685686767398 4.6416001416197465 -1.5626432767568676 4.653944415013453 -1.562518280769429 L 4.675529122655746 -1.562518280769429 L 4.675529122655746 -1.7438088179499696 L 4.936016105394876 -1.7438088179499696 C 4.973722130500755 -1.7438088179499678 5.004288903290213 -1.7132420451605066 5.004288903290213 -1.6755360200546328 L 5.004288903290213 -1.5615729651062624 L 5.1334295263860845 -1.5608377195904666 L 6.32032585902809 -1.5398307048534399 C 6.350383345205045 -1.5393323754353583 6.374975192203361 -1.515748015651126 6.376729693597007 -1.4857376419055957 L 6.378357737239123 -1.4597414611685258 L 5.179434888660168 -1.4857376419055957 L 5.192984413165556 -1.3310734959042367 L 5.1001334080278955 -1.4476624276947359 L 4.406586816484959 -1.4476624276947359 C 4.406586816484959 -1.4476624276947359 4.357692989684527 -1.7147666200760296 4.201348282504206 -1.7147666200760296 C 3.8952235602488883 -1.7147666200760296 3.9016832172805183 -0.9493760381324625 3.9016832172805183 -0.9493760381324625 L 3.8430736461642137 -0.9548903795009318 C 3.844888086074801 -1.1615087440238527 3.8723907469824823 -1.3670995138879158 3.9249484861017905 -1.5669297538642066 C 3.865608175438381 -1.5473665017977805 3.8045320288321895 -1.5335263269117796 3.742555080647558 -1.5255984523691026 C 3.6774858524996183 -1.5223948826217057 3.688882157994455 -1.6005409774434467 3.688882157994455 -1.6005409774434467 L 3.6872015968154916 -2.9282368263603766 C 3.8161219126922745 -3.0001575580753785 3.9541332406628573 -3.0544046831486744 4.097521112166467 -3.089518182003899 C 5.105280126638478 -3.0727125702142777 5.552887093147671 -2.9844831083187655 5.660758113822302 -2.9593272081711754 C 5.634184240179966 -3.0331143474349824 5.515179501694705 -3.098446163267135 5.41082715598853 -3.1195582130778474 L 5.41082715598853 -3.285881252258257 C 5.395729714888661 -3.294218879267464 5.379094964990906 -3.299400487721117 5.361933329188099 -3.3011113379426007 L 5.361933329188099 -3.6808656468512013 C 5.358037036101609 -3.7040243563458333 5.352365935172782 -3.7268492207652675 5.344970164787942 -3.749138444746539 C 5.3375743944031075 -3.7714276687278114 5.315560344156115 -3.8126846643260435 5.269082324050437 -3.7735590993783314 C 5.2226043039447605 -3.7344335344306194 5.269082324050437 -3.6807080942406736 5.269082324050437 -3.6807080942406736 L 5.269082324050437 -3.139935017372764 C 5.255270211860841 -3.141195438256985 5.212836042092046 -3.1490730687833697 5.212836042092046 -3.1490730687833697 L 5.208582121607798 -3.590220378260931 L 3.6448724621203783 -3.767414547567751 L 3.6448724621203783 -3.8934566359899114 C 3.6409508339471173 -3.916620053163757 3.6352444341048846 -3.9394456525326764 3.627804262646534 -3.9617294338852487 C 3.6203640911881934 -3.98401321523782 3.5984469595515476 -4.025223135927911 3.5520214569827173 -3.986097570980199 C 3.5055959544138866 -3.946972006032486 3.5520214569827173 -3.8932990833793837 3.5520214569827173 -3.8932990833793837 L 3.5520214569827173 -3.3925443695855098 C 3.5349944284812826 -3.3948273222202525 3.517738851988966 -3.3948273222202525 3.500711823487532 -3.3925443695855098 L 3.486111948245293 -2.435202190482361 L 3.433226788644833 -2.435202190482361 L 3.433226788644833 -3.7694627315046114 C 3.4332180665646472 -3.7736226712476864 3.430943380621656 -3.777447364426175 3.4272923069816175 -3.7794410635046995 C 3.4236453804030362 -3.7813875719989674 3.4192343661179776 -3.78122717147951 3.4157384488762563 -3.7790209232099587 L 0.7560928305581576 -2.1105912952584545 L 3.2973114032962774 -3.5294575881340813 L 1.3301095082474186 -2.314516890818142 L 3.276777046390844 -3.237932741120993 L 1.6393852827132873 -2.3289592134498482 L 3.2726806785171165 -2.963423576044897 L 1.088318768624239 -1.918324592877818 L 3.2649606006012606 -2.6968445590320274 L 1.6100804971551375 -1.9761989184783273 L 3.2363385430220655 -2.4053197120189393 L 0.5897172738409094 -1.4915145709582776 L 3.2384917620326017 -2.147353571048252 L 1.375484660079389 -1.582054804474864 L 3.2336076311062367 -1.876153010793237 L 0.8466855816115788 -1.3102240337777378 L 3.2274630792956556 -1.5935036275065428 L 1.436615072964131 -1.2739869333563671 L 1.6512542460396973 -1.2444720776508449 L 1.6613901306503127 -1.0919086331231886 L 1.8446238166940292 -1.0919086331231886 C 1.8446238166940292 -0.6767049868458557 1.890996801726013 -0.5324918306761672 1.9398381109896028 -0.5324918306761672 L 2.5358071190790428 -0.5324918306761672 C 2.584595910805786 -0.5324918306761672 2.616369020595542 -0.6717158208458116 2.616369020595542 -0.6717158208458116 L 3.0560983565783593 -0.6717158208458116 C 3.0560983565783593 -0.6717158208458116 3.068912635567947 -0.5392665929288576 3.1226380757578913 -0.5392665929288576 L 3.7625642621845663 -0.5392665929288576 C 3.8431786812379016 -0.5392665929288576 3.8425484707957933 -0.6937206687828468 3.8425484707957933 -0.6937206687828468 L 3.957351806333649 -0.6937206687828468 C 3.9694833573442816 -0.6423585177508162 4.02562460422898 -0.4665823219387448 4.1233597402929965 -0.4665823219387448 L 4.4946587257699475 -0.4665823219387448 C 4.584988889139167 -0.4665823219387448 4.6558350463397815 -0.7743350878361861 4.6558350463397815 -0.7743350878361861 L 5.959950521214402 -0.7743350878361861 C 5.97696620315139 -0.6776503025090213 6.022078767299158 -0.5413672944025603 6.142816584500218 -0.4787663904862205 L 6.52619460345095 -0.4787663904862205 C 6.52619460345095 -0.4787663904862205 6.665366076083754 -0.5401068735183392 6.701078001136702 -0.7743350878361861 L 6.814883503474544 -0.7743350878361861 C 6.876434056654048 -0.8640350407632909 6.888933230422577 -1.003469101080305 6.88746273939098 -1.114491173965492 Z M 6.658643831367922 -1.6645598548545353 C 6.685771655206026 -1.664501904835186 6.707724255458653 -1.6424787930185767 6.707695210778877 -1.6153509228330503 L 6.707695210778877 -1.51262662076899 L 6.471628882671537 -1.51262662076899 L 6.463488664460944 -1.6645598548545353 Z M 5.32412070266146 -2.231381629996359 C 5.336925818845731 -2.243764938848365 5.354340639672345 -2.250204992939608 5.372121731335565 -2.249132557449145 L 6.246853824985355 -2.1970351609013195 C 6.280288904494911 -2.194968104183549 6.306983967708366 -2.168385488582622 6.309192141217482 -2.134959432353406 L 5.304479143882337 -2.184063329301205 C 5.304115811511376 -2.2018898119108465 5.311240014775584 -2.219052665229177 5.32412070266146 -2.231381629996359 Z M 5.3265890268930605 -2.0790807731529144 C 5.3394483716800645 -2.0917207793773924 5.356999013632083 -2.0984212413807652 5.3750101958619085 -2.097566946121498 L 6.254416350290687 -2.05523781142639 C 6.288007206522589 -2.0537147741402926 6.315036268155815 -2.0270935273514947 6.317069771743872 -1.9935297056363739 L 5.306789915503413 -2.031394849699865 C 5.306473800902353 -2.0493513378344312 5.313647403644331 -2.06662887441193 5.3265890268930605 -2.0790807731529153 Z M 5.3290573511246615 -1.9262547409410455 C 5.342014927756351 -1.93901878157671 5.359671163717248 -1.9458608105820074 5.3778461428514 -1.9451610542043696 L 6.26187384052233 -1.9129678041198757 C 6.295518742613117 -1.911791372416018 6.322780958427486 -1.8852788675365462 6.324894884733411 -1.8516798386246007 L 5.309153204661331 -1.877938607045885 C 5.30878214569437 -1.896126166681218 5.315992782047272 -1.913648583781538 5.329057351124656 -1.9263072584778866 Z M 5.311726563966615 -1.7237996364129504 C 5.311349681660433 -1.742183485362884 5.31850231568036 -1.7599227766324663 5.331525675356257 -1.7729035333607506 C 5.3446145578609165 -1.785669843495337 5.3622985694947625 -1.7926184861822998 5.380577054767213 -1.792177469381973 L 6.269593918438186 -1.7702776565186227 C 6.3033707103452095 -1.7695010814516223 6.330944069372977 -1.7430224463554742 6.3330876204808515 -1.7093047962444032 Z M 1.9620005115371784 -0.6695100842984232 C 1.929859778989527 -0.6695100842984232 1.903758563178764 -0.7637790629308299 1.903758563178764 -0.8802104421108004 C 1.9024390724284195 -0.9366080011847284 1.9100972431830168 -0.9928565562873839 1.9264461390947543 -1.0468485865122652 C 1.9238387765918092 -1.0217247247496974 1.9225415873218017 -0.9964821227386658 1.9225598413684029 -0.971223333458969 C 1.922559841368413 -0.8548969893526834 1.9488186097896956 -0.7606805282571187 1.9807492721899707 -0.7606805282571187 C 1.9941937616216658 -0.7606805282571187 2.006430347705992 -0.7769609646783149 2.0163036446323948 -0.8045326715206613 C 2.0080583913481034 -0.7256513311831272 1.9870513766110813 -0.6695626018352661 1.9620005115371784 -0.6695626018352661 Z M 2.1353083831176454 -0.6695100842984232 C 2.1032201681068408 -0.6695100842984232 2.077171469832924 -0.7637790629308299 2.077171469832924 -0.8802104421108004 C 2.075850849590026 -0.9366005629915106 2.0834728494254544 -0.9928438315445272 2.0997540106752313 -1.046848586512266 C 2.0971651355474394 -1.02172373675936 2.0958854784872756 -0.9964811865314669 2.0959202304857163 -0.9712233334589673 C 2.0959202304857163 -0.8548969893526834 2.122178998906999 -0.7606805282571187 2.154109661307284 -0.7606805282571187 C 2.1675016332021326 -0.7606805282571187 2.179843254360142 -0.7769609646783149 2.1896640337496978 -0.8045326715206613 C 2.18136626292858 -0.7256513311831272 2.160359248191548 -0.6695626018352661 2.1353609006544816 -0.6695626018352661 Z M 2.758166370070486 -0.9793635516695671 L 2.433765544993954 -0.9793635516695671 C 2.4149117492674685 -1.1710525611449354 2.3304635500246285 -1.2506691469982663 2.3304635500246285 -1.2506691469982663 C 2.359399433860742 -1.1633417759053568 2.3697918757722736 -1.0709366899932276 2.360976238930158 -0.9793635516695653 L 2.2794165042136454 -0.9793635516695653 C 2.2794165042136454 -1.2847530284090931 2.219809099897342 -1.3216203392725747 2.219809099897342 -1.3216203392725747 L 2.4957887560050267 -1.359432965799222 C 2.652133463185342 -1.2228873700085483 2.7216141644280585 -1.262748180472057 2.7216141644280585 -1.262748180472057 C 2.7654663076916 -1.1796129196502738 2.7582188876073324 -0.9792059990590385 2.7582188876073324 -0.9792059990590385 Z M 4.157653691851209 -0.6814840826985282 C 4.078194658608402 -0.6814840826985282 4.013545570755205 -0.8308964750156305 4.013545570755205 -1.0149179241119848 C 4.010701037013338 -1.1060293633810359 4.029925872593633 -1.1964779806379013 4.069581782566221 -1.2785559590616682 C 4.063124803340437 -1.2390413063580725 4.059910518396916 -1.1990647351479566 4.059971073324035 -1.1590260452079884 C 4.059971073324035 -0.9748470435011063 4.1245676436403915 -0.8255396862576898 4.204131711956876 -0.8255396862576898 C 4.237375312778225 -0.8255396862576898 4.267888001683759 -0.8517984546789732 4.292203621241866 -0.8952829751846183 C 4.271564229262735 -0.7701862024256245 4.21904669242017 -0.6813265300880005 4.157706209388051 -0.6813265300880005 Z M 3.9785688912180572 -2.52726543256738 L 4.076776685113657 -2.40348159822945 C 4.06763863370305 -2.5081490491566845 4.051830855113437 -2.8045055095592897 4.0459488909870736 -2.916630450718169 C 4.045491734663966 -2.9272208773317354 4.040034697561396 -2.936965586443482 4.031243980671151 -2.9428892191394533 C 4.022482429950916 -2.9487506687688194 4.01148110953468 -2.950169566985048 4.00151905481826 -2.9467229993289603 C 3.9243707931965237 -2.91993905553925 3.8500059610274526 -2.8868004897915904 3.810617808395529 -2.868576904507221 C 3.7928763031406407 -2.8603727051894943 3.7815344196835117 -2.8425907649411606 3.7815756105215916 -2.8230442000647145 L 3.7815756105215916 -2.528053195620018 C 3.781576973951062 -2.5119000308587136 3.7894068154965357 -2.496749287468285 3.8025826252586796 -2.487404622103824 C 3.815794261754853 -2.4779786918025666 3.832785920443086 -2.475624189443921 3.848062812164277 -2.4811025176827624 Z" fill="#4d4d4d" transform="matrix(1,0,0,1,0,0)" fill-rule="nonzero"></path></g><g clip-path="url(#SvgjsClipPath1190227b4a1454-2d34-440f-8ffc-ea40284eee5e)"><path d=" M 4.151981797872207 -0.41175401347510565 C 5.54012533169493 -0.41175401347510565 6.8033821629060345 -0.35036101290614496 7.7477525104090645 -0.24994748246315712 C 7.2233123874991945 -0.4862763982547076 5.811535962097314 -0.6553303493509288 4.151981797872207 -0.6553303493509288 C 2.4924276336471003 -0.6553303493509288 1.0807037257820657 -0.48611884564417984 0.5562636028721855 -0.24994748246315712 C 1.5006339503752308 -0.35036101290614496 2.7638382640494887 -0.41175401347510565 4.151981797872207 -0.41175401347510565 Z" fill="#4d4d4d" transform="matrix(1,0,0,1,0,0)" fill-rule="nonzero"></path></g></g><g><path d=" M 0.5955 0.54 L 0.8085 0.07050000000000001 L 0.657 0.07050000000000001 L 0.657 0.046499999999999986 L 0.9525 0.046499999999999986 L 0.9525 0.07050000000000001 L 0.8535 0.07050000000000001 L 0.627 0.5715 L 0.627 1.068 L 0.7185 1.068 L 0.7185 1.0965 L 0.243 1.0965 L 0.243 1.068 L 0.3345 1.068 L 0.3345 0.6000000000000001 L 0.0795 0.07050000000000001 L 0.009000000000000001 0.07050000000000001 L 0.009000000000000001 0.046499999999999986 L 0.489 0.046499999999999986 L 0.489 0.07050000000000001 L 0.3915 0.07050000000000001 L 0.5955 0.54 M 1.60648681640625 0.825 L 1.8674868164062501 0.07499999999999996 L 1.7504868164062501 0.07499999999999996 L 1.7504868164062501 0.046499999999999986 L 1.97998681640625 0.046499999999999986 L 1.97998681640625 0.07499999999999996 L 1.90948681640625 0.07499999999999996 L 1.54798681640625 1.1115 L 1.4219868164062501 1.1115 L 1.03948681640625 0.07499999999999996 L 0.97048681640625 0.07499999999999996 L 0.97048681640625 0.046499999999999986 L 1.46098681640625 0.046499999999999986 L 1.46098681640625 0.07499999999999996 L 1.35448681640625 0.07499999999999996 L 1.60648681640625 0.825 M 2.29047216796875 0.046499999999999986 L 2.83047216796875 0.046499999999999986 L 2.83047216796875 0.0794999999999999 L 2.67147216796875 0.0794999999999999 L 2.67147216796875 1.0635000000000001 L 2.72547216796875 1.0635000000000001 Q 2.85297216796875 1.0635000000000001 2.92872216796875 0.9855 Q 3.00447216796875 0.9075 3.08247216796875 0.7455 L 3.11397216796875 0.7455 L 3.0854721679687502 1.0965 L 2.29047216796875 1.0965 L 2.29047216796875 1.0635000000000001 L 2.37897216796875 1.0635000000000001 L 2.37897216796875 0.0794999999999999 L 2.29047216796875 0.0794999999999999 L 2.29047216796875 0.046499999999999986 M 3.652484619140625 0.801 L 3.652484619140625 0.6735 Q 3.652484619140625 0.528 3.636734619140625 0.46125000000000005 Q 3.620984619140625 0.39449999999999996 3.563984619140625 0.39449999999999996 Q 3.530984619140625 0.39449999999999996 3.5107346191406252 0.41325 Q 3.490484619140625 0.43200000000000005 3.481484619140625 0.47550000000000003 Q 3.467984619140625 0.543 3.467984619140625 0.681 L 3.467984619140625 0.798 Q 3.467984619140625 0.9615 3.477734619140625 0.9945 Q 3.4874846191406252 1.0275 3.497984619140625 1.0485 Q 3.514484619140625 1.0845 3.562484619140625 1.0845 Q 3.620984619140625 1.0845 3.6389846191406248 1.0170000000000001 Q 3.652484619140625 0.9690000000000001 3.652484619140625 0.801 M 3.275984619140625 1.0155 Q 3.179984619140625 0.9195 3.179984619140625 0.7402500000000001 Q 3.179984619140625 0.561 3.282734619140625 0.46425000000000005 Q 3.385484619140625 0.36750000000000005 3.571484619140625 0.36750000000000005 Q 3.757484619140625 0.36750000000000005 3.848984619140625 0.45675 Q 3.940484619140625 0.546 3.940484619140625 0.7290000000000001 Q 3.940484619140625 1.1115 3.559484619140625 1.1115 Q 3.371984619140625 1.1115 3.275984619140625 1.0155 M 4.584029296875 0.3045 L 4.626029296875 0.279 Q 4.635029296875 0.23250000000000004 4.5900292968750005 0.23250000000000004 Q 4.525529296875 0.23250000000000004 4.525529296875 0.3315 Q 4.525529296875 0.37050000000000005 4.536029296875 0.4215 Q 4.650029296875 0.498 4.650029296875 0.6172500000000001 Q 4.650029296875 0.7365 4.567529296875 0.8025 Q 4.485029296875 0.8685 4.344029296875 0.8685 Q 4.285529296875 0.8685 4.222529296875 0.8565 Q 4.156529296875 0.8985000000000001 4.156529296875 0.9195 Q 4.156529296875 0.9405 4.252529296875 0.9405 L 4.405529296875 0.9405 Q 4.746029296875 0.9405 4.746029296875 1.185 Q 4.746029296875 1.317 4.643279296875 1.39425 Q 4.540529296875 1.4715 4.323029296875 1.4715 Q 3.952529296875 1.4715 3.952529296875 1.311 Q 3.952529296875 1.224 4.068029296875 1.191 L 4.158029296875 1.2315 Q 4.146029296875 1.275 4.146029296875 1.314 Q 4.146029296875 1.443 4.338029296875 1.443 Q 4.455029296875 1.443 4.5180292968749995 1.3995 Q 4.581029296875 1.356 4.581029296875 1.2915 Q 4.581029296875 1.227 4.5427792968750005 1.20525 Q 4.504529296875 1.1835 4.390529296875 1.1835 L 4.245029296875 1.1835 Q 4.123529296875 1.1835 4.071029296875 1.143 Q 4.018529296875 1.1025 4.018529296875 1.04325 Q 4.018529296875 0.984 4.056029296875 0.94425 Q 4.093529296875 0.9045000000000001 4.189529296875 0.8460000000000001 Q 4.015529296875 0.7965 4.015529296875 0.618 Q 4.015529296875 0.5055000000000001 4.096529296875 0.4365 Q 4.177529296875 0.36750000000000005 4.339529296875 0.36750000000000005 Q 4.437029296875 0.36750000000000005 4.506029296875 0.405 Q 4.497029296875 0.36450000000000005 4.497029296875 0.3315 Q 4.497029296875 0.24750000000000005 4.5420292968750005 0.20999999999999996 Q 4.587029296875 0.1725 4.642529296875 0.1725 Q 4.698029296875 0.1725 4.731779296875 0.20174999999999998 Q 4.765529296875 0.23099999999999998 4.765529296875 0.28200000000000003 Q 4.765529296875 0.33299999999999996 4.738529296875 0.35775 Q 4.711529296875 0.38250000000000006 4.673279296875 0.38250000000000006 Q 4.635029296875 0.38250000000000006 4.610279296875 0.36224999999999996 Q 4.585529296875 0.34199999999999997 4.584029296875 0.3045 M 4.266029296875 0.585 L 4.266029296875 0.666 Q 4.266029296875 0.7665 4.283279296875 0.8025 Q 4.300529296875 0.8385 4.335779296875 0.8385 Q 4.371029296875 0.8385 4.386779296875 0.80325 Q 4.402529296875 0.768 4.402529296875 0.6585000000000001 L 4.402529296875 0.585 Q 4.402529296875 0.46799999999999997 4.387529296875 0.43125 Q 4.372529296875 0.39449999999999996 4.337279296875 0.39449999999999996 Q 4.302029296875 0.39449999999999996 4.284029296875 0.43274999999999997 Q 4.266029296875 0.471 4.266029296875 0.585 M 4.87273828125 0.23850000000000005 Q 4.83898828125 0.19800000000000006 4.83898828125 0.138 Q 4.83898828125 0.07800000000000007 4.87573828125 0.038999999999999924 Q 4.91248828125 0 4.98748828125 0 Q 5.06248828125 0 5.10148828125 0.035250000000000004 Q 5.14048828125 0.07050000000000001 5.14048828125 0.13575000000000004 Q 5.14048828125 0.20099999999999996 5.10298828125 0.24 Q 5.06548828125 0.279 4.98598828125 0.279 Q 4.90648828125 0.279 4.87273828125 0.23850000000000005 M 4.75948828125 0.38250000000000006 L 5.12698828125 0.38250000000000006 L 5.12698828125 1.0695000000000001 L 5.21098828125 1.0695000000000001 L 5.21098828125 1.0965 L 4.76548828125 1.0965 L 4.76548828125 1.0695000000000001 L 4.84798828125 1.0695000000000001 L 4.84798828125 0.4095 L 4.75948828125 0.4095 L 4.75948828125 0.38250000000000006 M 5.27551318359375 1.1115 L 5.27551318359375 0.843 L 5.29351318359375 0.843 Q 5.33251318359375 0.9735 5.39851318359375 1.026 Q 5.46451318359375 1.0785 5.56351318359375 1.0785 Q 5.71651318359375 1.0785 5.71651318359375 0.981 Q 5.71651318359375 0.9390000000000001 5.67901318359375 0.918 Q 5.62051318359375 0.885 5.52901318359375 0.867 Q 5.42701318359375 0.8400000000000001 5.35801318359375 0.795 Q 5.27551318359375 0.7410000000000001 5.27551318359375 0.624 Q 5.27551318359375 0.507 5.34751318359375 0.43725 Q 5.41951318359375 0.36750000000000005 5.53951318359375 0.36750000000000005 Q 5.6130131835937505 0.36750000000000005 5.69101318359375 0.402 Q 5.71951318359375 0.41400000000000003 5.73451318359375 0.41400000000000003 Q 5.74951318359375 0.41400000000000003 5.76001318359375 0.40349999999999997 Q 5.77051318359375 0.393 5.78551318359375 0.36450000000000005 L 5.8020131835937505 0.36450000000000005 L 5.8020131835937505 0.594 L 5.78401318359375 0.594 Q 5.70751318359375 0.399 5.54701318359375 0.399 Q 5.47651318359375 0.399 5.44201318359375 0.42375000000000007 Q 5.40751318359375 0.4485 5.40751318359375 0.486 Q 5.40751318359375 0.5085000000000001 5.41801318359375 0.52125 Q 5.42851318359375 0.534 5.43451318359375 0.54 Q 5.44051318359375 0.546 5.45401318359375 0.55275 Q 5.46751318359375 0.5595 5.47651318359375 0.56325 Q 5.48551318359375 0.5670000000000001 5.50426318359375 0.5730000000000001 Q 5.52301318359375 0.5790000000000001 5.53201318359375 0.5805 Q 5.63401318359375 0.6060000000000001 5.67901318359375 0.62475 Q 5.72401318359375 0.6435 5.76451318359375 0.6705000000000001 Q 5.84701318359375 0.7275 5.84701318359375 0.8542500000000001 Q 5.84701318359375 0.981 5.77201318359375 1.0462500000000001 Q 5.69701318359375 1.1115 5.5665131835937505 1.1115 Q 5.47351318359375 1.1115 5.38651318359375 1.068 Q 5.36851318359375 1.056 5.35801318359375 1.056 Q 5.32501318359375 1.056 5.29351318359375 1.1115 L 5.27551318359375 1.1115 M 5.952030029296875 0.882 L 5.952030029296875 0.4095 L 5.869530029296875 0.4095 L 5.869530029296875 0.38250000000000006 L 5.952030029296875 0.38250000000000006 L 5.952030029296875 0.18900000000000006 L 6.231030029296875 0.12 L 6.231030029296875 0.38250000000000006 L 6.426030029296875 0.38250000000000006 L 6.426030029296875 0.4095 L 6.231030029296875 0.4095 L 6.231030029296875 0.915 Q 6.231030029296875 0.9855 6.245280029296875 1.0185 Q 6.259530029296875 1.0515 6.304530029296875 1.0515 Q 6.349530029296875 1.0515 6.383280029296875 1.0065 Q 6.417030029296875 0.9615 6.427530029296875 0.8835000000000001 L 6.453030029296875 0.8865000000000001 Q 6.441030029296875 0.99 6.387030029296875 1.05075 Q 6.333030029296875 1.1115 6.208530029296875 1.1115 Q 6.084030029296875 1.1115 6.018030029296875 1.062 Q 5.952030029296875 1.0125 5.952030029296875 0.882 M 6.5752529296875 0.23850000000000005 Q 6.5415029296875 0.19800000000000006 6.5415029296875 0.138 Q 6.5415029296875 0.07800000000000007 6.5782529296875 0.038999999999999924 Q 6.6150029296875 0 6.6900029296875 0 Q 6.7650029296875 0 6.8040029296875 0.035250000000000004 Q 6.8430029296875 0.07050000000000001 6.8430029296875 0.13575000000000004 Q 6.8430029296875 0.20099999999999996 6.8055029296875 0.24 Q 6.7680029296875 0.279 6.6885029296875 0.279 Q 6.6090029296875 0.279 6.5752529296875 0.23850000000000005 M 6.4620029296875 0.38250000000000006 L 6.8295029296875 0.38250000000000006 L 6.8295029296875 1.0695000000000001 L 6.9135029296875 1.0695000000000001 L 6.9135029296875 1.0965 L 6.4680029296875 1.0965 L 6.4680029296875 1.0695000000000001 L 6.5505029296875 1.0695000000000001 L 6.5505029296875 0.4095 L 6.4620029296875 0.4095 L 6.4620029296875 0.38250000000000006 M 7.36352783203125 0.39449999999999996 Q 7.29752783203125 0.39449999999999996 7.2690278320312505 0.4665 Q 7.24052783203125 0.5385 7.24052783203125 0.7050000000000001 L 7.24052783203125 0.783 Q 7.24052783203125 0.9315 7.27352783203125 0.996 Q 7.30652783203125 1.0605 7.39502783203125 1.0605 Q 7.48352783203125 1.0605 7.53602783203125 1.0005 Q 7.58852783203125 0.9405 7.60352783203125 0.864 L 7.63052783203125 0.867 Q 7.60202783203125 0.996 7.5255278320312495 1.053 Q 7.44752783203125 1.1115 7.31102783203125 1.1115 Q 7.13702783203125 1.1115 7.04402783203125 1.01775 Q 6.95102783203125 0.924 6.95102783203125 0.74325 Q 6.95102783203125 0.5625 7.05677783203125 0.46499999999999997 Q 7.16252783203125 0.36750000000000005 7.35152783203125 0.36750000000000005 Q 7.48502783203125 0.36750000000000005 7.55552783203125 0.41925 Q 7.62602783203125 0.471 7.62602783203125 0.549 Q 7.62602783203125 0.627 7.59227783203125 0.663 Q 7.55852783203125 0.6990000000000001 7.49927783203125 0.6990000000000001 Q 7.44002783203125 0.6990000000000001 7.40402783203125 0.6675 Q 7.36802783203125 0.636 7.36802783203125 0.5745 Q 7.36802783203125 0.5475 7.37552783203125 0.5205 L 7.42502783203125 0.5205 Q 7.43552783203125 0.49050000000000005 7.43552783203125 0.4665 Q 7.43552783203125 0.39449999999999996 7.36352783203125 0.39449999999999996 M 7.702484619140625 1.1115 L 7.702484619140625 0.843 L 7.720484619140625 0.843 Q 7.759484619140625 0.9735 7.825484619140625 1.026 Q 7.891484619140625 1.0785 7.990484619140625 1.0785 Q 8.143484619140626 1.0785 8.143484619140626 0.981 Q 8.143484619140626 0.9390000000000001 8.105984619140624 0.918 Q 8.047484619140626 0.885 7.955984619140625 0.867 Q 7.853984619140625 0.8400000000000001 7.784984619140625 0.795 Q 7.702484619140625 0.7410000000000001 7.702484619140625 0.624 Q 7.702484619140625 0.507 7.774484619140625 0.43725 Q 7.846484619140625 0.36750000000000005 7.966484619140625 0.36750000000000005 Q 8.039984619140625 0.36750000000000005 8.117984619140625 0.402 Q 8.146484619140624 0.41400000000000003 8.161484619140625 0.41400000000000003 Q 8.176484619140625 0.41400000000000003 8.186984619140626 0.40349999999999997 Q 8.197484619140624 0.393 8.212484619140625 0.36450000000000005 L 8.228984619140626 0.36450000000000005 L 8.228984619140626 0.594 L 8.210984619140625 0.594 Q 8.134484619140625 0.399 7.973984619140625 0.399 Q 7.903484619140625 0.399 7.868984619140625 0.42375000000000007 Q 7.834484619140625 0.4485 7.834484619140625 0.486 Q 7.834484619140625 0.5085000000000001 7.844984619140625 0.52125 Q 7.855484619140625 0.534 7.861484619140625 0.54 Q 7.867484619140625 0.546 7.880984619140625 0.55275 Q 7.894484619140625 0.5595 7.903484619140625 0.56325 Q 7.912484619140625 0.5670000000000001 7.931234619140625 0.5730000000000001 Q 7.949984619140625 0.5790000000000001 7.958984619140625 0.5805 Q 8.060984619140624 0.6060000000000001 8.105984619140624 0.62475 Q 8.150984619140624 0.6435 8.191484619140624 0.6705000000000001 Q 8.273984619140625 0.7275 8.273984619140625 0.8542500000000001 Q 8.273984619140625 0.981 8.198984619140624 1.0462500000000001 Q 8.123984619140625 1.1115 7.9934846191406255 1.1115 Q 7.900484619140625 1.1115 7.813484619140625 1.068 Q 7.795484619140625 1.056 7.784984619140625 1.056 Q 7.751984619140625 1.056 7.720484619140625 1.1115 L 7.702484619140625 1.1115" fill="#212121" fill-rule="nonzero"></path></g><g><path d=" M 2.591400146484375 2.3389658203125 L 2.589935302734375 2.3111337890625 L 2.634613037109375 2.3008798828125 Q 2.636077880859375 2.2979501953125 2.637176513671875 2.285865234375 Q 2.638275146484375 2.2737802734375 2.638641357421875 2.2510751953125 Q 2.639007568359375 2.2283701171875 2.639007568359375 2.1932138671875 L 2.639007568359375 2.0555185546875 Q 2.639007568359375 2.0196298828125 2.638641357421875 1.99655859375 Q 2.638275146484375 1.9734873046875 2.637176513671875 1.96140234375 Q 2.636077880859375 1.9493173828125 2.634613037109375 1.9471201171875 L 2.589935302734375 1.9368662109375 L 2.591400146484375 1.9090341796875 L 2.748870849609375 1.9090341796875 L 2.751068115234375 1.9368662109375 L 2.705657958984375 1.9471201171875 Q 2.704193115234375 1.9493173828125 2.703094482421875 1.96140234375 Q 2.701995849609375 1.9734873046875 2.701629638671875 1.99655859375 Q 2.701263427734375 2.0196298828125 2.701263427734375 2.0555185546875 L 2.701263427734375 2.1932138671875 Q 2.701263427734375 2.2283701171875 2.701629638671875 2.2510751953125 Q 2.701995849609375 2.2737802734375 2.703094482421875 2.285865234375 Q 2.704193115234375 2.2979501953125 2.705657958984375 2.3008798828125 L 2.751068115234375 2.3111337890625 L 2.748870849609375 2.3389658203125 L 2.591400146484375 2.3389658203125 M 2.327728271484375 2.3389658203125 L 2.325531005859375 2.3111337890625 L 2.370941162109375 2.3008798828125 Q 2.372406005859375 2.2972177734375 2.372772216796875 2.2840341796875 Q 2.373138427734375 2.2708505859375 2.373504638671875 2.2481455078125 Q 2.373870849609375 2.2254404296875 2.373870849609375 2.1932138671875 L 2.373870849609375 2.0555185546875 Q 2.373870849609375 2.0225595703125 2.373504638671875 1.99948828125 Q 2.373138427734375 1.9764169921875 2.372772216796875 1.9632333984375 Q 2.372406005859375 1.9500498046875 2.370941162109375 1.9471201171875 L 2.325531005859375 1.9368662109375 L 2.327728271484375 1.9090341796875 L 2.483734130859375 1.9090341796875 L 2.485198974609375 1.9368662109375 L 2.440521240234375 1.9471201171875 Q 2.439056396484375 1.9493173828125 2.437957763671875 1.96140234375 Q 2.436859130859375 1.9734873046875 2.436492919921875 1.99655859375 Q 2.436126708984375 2.0196298828125 2.436126708984375 2.0555185546875 L 2.436126708984375 2.1932138671875 Q 2.436126708984375 2.2283701171875 2.436492919921875 2.2510751953125 Q 2.436859130859375 2.2737802734375 2.437957763671875 2.285865234375 Q 2.439056396484375 2.2979501953125 2.440521240234375 2.3008798828125 L 2.485198974609375 2.3111337890625 L 2.483734130859375 2.3389658203125 L 2.327728271484375 2.3389658203125 M 2.427337646484375 2.1397470703125 L 2.427337646484375 2.0965341796875 Q 2.441986083984375 2.0972666015625 2.470184326171875 2.0979990234375 Q 2.498382568359375 2.0987314453125 2.538665771484375 2.0987314453125 Q 2.578216552734375 2.0987314453125 2.606048583984375 2.0979990234375 Q 2.633880615234375 2.0972666015625 2.647064208984375 2.0965341796875 L 2.647064208984375 2.1397470703125 Q 2.630950927734375 2.1382822265625 2.605316162109375 2.1375498046875 Q 2.579681396484375 2.1368173828125 2.538665771484375 2.1368173828125 Q 2.496185302734375 2.1368173828125 2.469818115234375 2.1375498046875 Q 2.443450927734375 2.1382822265625 2.427337646484375 2.1397470703125 M 3.118377685546875 2.2876962890625 L 3.164520263671875 2.2994150390625 L 3.164520263671875 2.3235849609375 L 3.069305419921875 2.3470224609375 L 3.058319091796875 2.3375009765625 L 3.059051513671875 2.2913583984375 L 3.056854248046875 2.2906259765625 Q 3.035614013671875 2.3206552734375 3.013275146484375 2.332740234375 Q 2.990936279296875 2.3448251953125 2.965301513671875 2.3448251953125 Q 2.916229248046875 2.3448251953125 2.883270263671875 2.3144296875 Q 2.850311279296875 2.2840341796875 2.850311279296875 2.2232431640625 L 2.850311279296875 2.1602548828125 Q 2.850311279296875 2.1397470703125 2.849212646484375 2.120337890625 Q 2.848114013671875 2.1009287109375 2.846649169921875 2.0811533203125 L 2.796844482421875 2.0708994140625 L 2.796844482421875 2.0467294921875 L 2.896453857421875 2.0196298828125 L 2.909637451171875 2.0313486328125 Q 2.908172607421875 2.0540537109375 2.907440185546875 2.0796884765625 Q 2.906707763671875 2.1053232421875 2.906707763671875 2.1331552734375 L 2.905975341796875 2.2137216796875 Q 2.905975341796875 2.2591318359375 2.927215576171875 2.278541015625 Q 2.948455810546875 2.2979501953125 2.981414794921875 2.2979501953125 Q 3.001190185546875 2.2979501953125 3.021697998046875 2.2876962890625 Q 3.042205810546875 2.2774423828125 3.057586669921875 2.2525400390625 L 3.057586669921875 2.1675791015625 Q 3.057586669921875 2.1514658203125 3.057220458984375 2.13571875 Q 3.056854248046875 2.1199716796875 3.056121826171875 2.105689453125 Q 3.055389404296875 2.0914072265625 3.053924560546875 2.0811533203125 L 3.000457763671875 2.0708994140625 L 3.000457763671875 2.0467294921875 L 3.103729248046875 2.0196298828125 L 3.114715576171875 2.0298837890625 Q 3.113983154296875 2.0503916015625 3.113616943359375 2.0665048828125 Q 3.113250732421875 2.0826181640625 3.113250732421875 2.098365234375 Q 3.113250732421875 2.1141123046875 3.113250732421875 2.1338876953125 L 3.113250732421875 2.1858896484375 Q 3.113250732421875 2.2261728515625 3.115081787109375 2.250708984375 Q 3.116912841796875 2.2752451171875 3.118377685546875 2.2876962890625 M 3.241790771484375 2.3191904296875 Q 3.242523193359375 2.2935556640625 3.242889404296875 2.2745126953125 Q 3.243255615234375 2.2554697265625 3.243255615234375 2.237525390625 Q 3.243255615234375 2.2195810546875 3.243255615234375 2.1990732421875 L 3.243255615234375 2.0730966796875 Q 3.243255615234375 2.0481943359375 3.242889404296875 2.019263671875 Q 3.242523193359375 1.9903330078125 3.242156982421875 1.963599609375 Q 3.241790771484375 1.9368662109375 3.241424560546875 1.9170908203125 Q 3.241058349609375 1.8973154296875 3.241058349609375 1.8907236328125 L 3.186859130859375 1.8841318359375 L 3.185394287109375 1.8606943359375 L 3.288665771484375 1.8306650390625 L 3.302581787109375 1.8409189453125 Q 3.301849365234375 1.8716806640625 3.301116943359375 1.9024423828125 Q 3.300384521484375 1.9332041015625 3.299652099609375 1.9734873046875 Q 3.298919677734375 2.0137705078125 3.298187255859375 2.0730966796875 L 3.300384521484375 2.0738291015625 Q 3.317962646484375 2.0489267578125 3.345428466796875 2.0335458984375 Q 3.372894287109375 2.0181650390625 3.404388427734375 2.0181650390625 Q 3.441009521484375 2.0181650390625 3.471771240234375 2.0357431640625 Q 3.502532958984375 2.0533212890625 3.521209716796875 2.0870126953125 Q 3.539886474609375 2.1207041015625 3.539886474609375 2.1683115234375 Q 3.539886474609375 2.2203134765625 3.515350341796875 2.26023046875 Q 3.490814208984375 2.3001474609375 3.449798583984375 2.322486328125 Q 3.408782958984375 2.3448251953125 3.358978271484375 2.3448251953125 Q 3.327484130859375 2.3448251953125 3.296722412109375 2.3378671875 Q 3.265960693359375 2.3309091796875 3.241790771484375 2.3191904296875 M 3.375091552734375 2.3074716796875 Q 3.418304443359375 2.3074716796875 3.446502685546875 2.2745126953125 Q 3.474700927734375 2.2415537109375 3.475433349609375 2.1814951171875 Q 3.476898193359375 2.1229013671875 3.447967529296875 2.094703125 Q 3.419036865234375 2.0665048828125 3.378021240234375 2.0665048828125 Q 3.356048583984375 2.0665048828125 3.335174560546875 2.076392578125 Q 3.314300537109375 2.0862802734375 3.298919677734375 2.1067880859375 L 3.298919677734375 2.2847666015625 Q 3.313568115234375 2.2950205078125 3.332244873046875 2.30124609375 Q 3.350921630859375 2.3074716796875 3.375091552734375 2.3074716796875 M 3.750823974609375 2.3389658203125 L 3.748626708984375 2.3111337890625 L 3.791107177734375 2.3008798828125 Q 3.791839599609375 2.2979501953125 3.792572021484375 2.2880625 Q 3.793304443359375 2.2781748046875 3.793670654296875 2.2562021484375 Q 3.794036865234375 2.2342294921875 3.794036865234375 2.1968759765625 L 3.794769287109375 2.0481943359375 Q 3.794769287109375 2.0115732421875 3.794036865234375 1.99069921875 Q 3.793304443359375 1.9698251953125 3.792938232421875 1.9599375 Q 3.792572021484375 1.9500498046875 3.791839599609375 1.9478525390625 L 3.746429443359375 1.9368662109375 L 3.748626708984375 1.9090341796875 L 3.904632568359375 1.9090341796875 Q 3.977142333984375 1.9090341796875 4.017425537109375 1.94089453125 Q 4.057708740234375 1.9727548828125 4.057708740234375 2.0328134765625 Q 4.057708740234375 2.0738291015625 4.036834716796875 2.1038583984375 Q 4.015960693359375 2.1338876953125 3.980804443359375 2.1503671875 Q 3.945648193359375 2.1668466796875 3.902435302734375 2.1668466796875 Q 3.886322021484375 2.1668466796875 3.872039794921875 2.165015625 Q 3.857757568359375 2.1631845703125 3.845306396484375 2.1609873046875 L 3.845306396484375 2.1214365234375 Q 3.862152099609375 2.1265634765625 3.874969482421875 2.1287607421875 Q 3.887786865234375 2.1309580078125 3.900238037109375 2.1309580078125 Q 3.943450927734375 2.1309580078125 3.967620849609375 2.1093515625 Q 3.991790771484375 2.0877451171875 3.991790771484375 2.0423349609375 Q 3.991790771484375 1.9903330078125 3.964691162109375 1.965796875 Q 3.937591552734375 1.9412607421875 3.896575927734375 1.9412607421875 L 3.857757568359375 1.9412607421875 Q 3.857757568359375 1.9456552734375 3.857391357421875 1.9617685546875 Q 3.857025146484375 1.9778818359375 3.856658935546875 2.000220703125 Q 3.856292724609375 2.0225595703125 3.856292724609375 2.0481943359375 L 3.857025146484375 2.1968759765625 Q 3.857025146484375 2.2342294921875 3.857757568359375 2.2558359375 Q 3.858489990234375 2.2774423828125 3.859222412109375 2.287330078125 Q 3.859954833984375 2.2972177734375 3.859954833984375 2.3001474609375 L 3.920745849609375 2.3096689453125 L 3.918548583984375 2.3389658203125 L 3.750823974609375 2.3389658203125 M 4.250701904296875 2.3418955078125 L 4.121063232421875 2.0613779296875 L 4.086639404296875 2.0503916015625 L 4.088104248046875 2.0240244140625 L 4.230926513671875 2.0240244140625 L 4.232391357421875 2.0503916015625 L 4.186981201171875 2.0613779296875 L 4.287322998046875 2.2840341796875 L 4.268280029296875 2.2847666015625 L 4.360565185546875 2.0613779296875 L 4.315155029296875 2.0503916015625 L 4.316619873046875 2.0240244140625 L 4.438201904296875 2.0240244140625 L 4.439666748046875 2.0503916015625 L 4.405242919921875 2.0613779296875 L 4.272674560546875 2.3418955078125 L 4.250701904296875 2.3418955078125 M 4.691986083984375 2.2935556640625 Q 4.678070068359375 2.3177255859375 4.653900146484375 2.331275390625 Q 4.629730224609375 2.3448251953125 4.603363037109375 2.3448251953125 Q 4.558685302734375 2.3448251953125 4.530120849609375 2.3177255859375 Q 4.501556396484375 2.2906259765625 4.501556396484375 2.2364267578125 L 4.503753662109375 2.0613779296875 L 4.452484130859375 2.0613779296875 L 4.452484130859375 2.0459970703125 L 4.546966552734375 1.9603037109375 L 4.560882568359375 1.9603037109375 L 4.559417724609375 2.0445322265625 L 4.558685302734375 2.2247080078125 Q 4.558685302734375 2.2627939453125 4.575164794921875 2.2811044921875 Q 4.591644287109375 2.2994150390625 4.621673583984375 2.2994150390625 Q 4.638519287109375 2.2994150390625 4.652801513671875 2.2928232421875 Q 4.667083740234375 2.2862314453125 4.678802490234375 2.2752451171875 L 4.691986083984375 2.2935556640625 M 4.533050537109375 2.0613779296875 L 4.533050537109375 2.0247568359375 L 4.670013427734375 2.0247568359375 L 4.670013427734375 2.0613779296875 L 4.533050537109375 2.0613779296875 M 5.172454833984375 2.3426279296875 Q 5.162200927734375 2.3411630859375 5.149383544921875 2.3404306640625 Q 5.136566162109375 2.3396982421875 5.124114990234375 2.33933203125 Q 5.111663818359375 2.3389658203125 5.101409912109375 2.3389658203125 L 4.867034912109375 2.3389658203125 L 4.865570068359375 2.3111337890625 L 4.910247802734375 2.3008798828125 Q 4.910980224609375 2.2972177734375 4.911712646484375 2.2840341796875 Q 4.912445068359375 2.2708505859375 4.912811279296875 2.2481455078125 Q 4.913177490234375 2.2254404296875 4.913177490234375 2.1932138671875 L 4.913177490234375 2.0555185546875 Q 4.913177490234375 2.0225595703125 4.913177490234375 1.9998544921875 Q 4.913177490234375 1.9771494140625 4.912445068359375 1.9639658203125 Q 4.911712646484375 1.9507822265625 4.910247802734375 1.9478525390625 L 4.865570068359375 1.9368662109375 L 4.867034912109375 1.9090341796875 L 5.039154052734375 1.9090341796875 L 5.041351318359375 1.9383310546875 L 4.980560302734375 1.9478525390625 Q 4.979095458984375 1.9500498046875 4.977996826171875 1.962134765625 Q 4.976898193359375 1.9742197265625 4.976531982421875 1.997291015625 Q 4.976165771484375 2.0203623046875 4.976165771484375 2.0555185546875 L 4.976165771484375 2.1932138671875 Q 4.976165771484375 2.2312998046875 4.976898193359375 2.259498046875 Q 4.977630615234375 2.2876962890625 4.978363037109375 2.2957529296875 Q 4.988616943359375 2.2964853515625 4.999603271484375 2.2972177734375 Q 5.010589599609375 2.2979501953125 5.024505615234375 2.2979501953125 L 5.079437255859375 2.2979501953125 Q 5.096282958984375 2.2979501953125 5.108001708984375 2.2972177734375 Q 5.119720458984375 2.2964853515625 5.131439208984375 2.2950205078125 L 5.169525146484375 2.2232431640625 L 5.202484130859375 2.2305673828125 L 5.172454833984375 2.3426279296875 M 5.453338623046875 2.2935556640625 Q 5.439422607421875 2.3177255859375 5.415252685546875 2.331275390625 Q 5.391082763671875 2.3448251953125 5.364715576171875 2.3448251953125 Q 5.320037841796875 2.3448251953125 5.291473388671875 2.3177255859375 Q 5.262908935546875 2.2906259765625 5.262908935546875 2.2364267578125 L 5.265106201171875 2.0613779296875 L 5.213836669921875 2.0613779296875 L 5.213836669921875 2.0459970703125 L 5.308319091796875 1.9603037109375 L 5.322235107421875 1.9603037109375 L 5.320770263671875 2.0445322265625 L 5.320037841796875 2.2247080078125 Q 5.320037841796875 2.2627939453125 5.336517333984375 2.2811044921875 Q 5.352996826171875 2.2994150390625 5.383026123046875 2.2994150390625 Q 5.399871826171875 2.2994150390625 5.414154052734375 2.2928232421875 Q 5.428436279296875 2.2862314453125 5.440155029296875 2.2752451171875 L 5.453338623046875 2.2935556640625 M 5.294403076171875 2.0613779296875 L 5.294403076171875 2.0247568359375 L 5.431365966796875 2.0247568359375 L 5.431365966796875 2.0613779296875 L 5.294403076171875 2.0613779296875 M 5.725433349609375 2.3470224609375 L 5.714447021484375 2.3375009765625 L 5.715179443359375 2.2898935546875 L 5.712982177734375 2.2891611328125 Q 5.691009521484375 2.3199228515625 5.667938232421875 2.3323740234375 Q 5.644866943359375 2.3448251953125 5.619232177734375 2.3448251953125 Q 5.577484130859375 2.3448251953125 5.544891357421875 2.325416015625 Q 5.512298583984375 2.3060068359375 5.493255615234375 2.2715830078125 Q 5.474212646484375 2.2371591796875 5.474212646484375 2.1924814453125 Q 5.474212646484375 2.1536630859375 5.487396240234375 2.1214365234375 Q 5.500579833984375 2.0892099609375 5.523651123046875 2.066138671875 Q 5.546722412109375 2.0430673828125 5.576019287109375 2.0306162109375 Q 5.605316162109375 2.0181650390625 5.636810302734375 2.0181650390625 Q 5.657318115234375 2.0181650390625 5.678558349609375 2.0232919921875 Q 5.699798583984375 2.0284189453125 5.714447021484375 2.0394052734375 Q 5.714447021484375 2.0262216796875 5.714080810546875 2.0049814453125 Q 5.713714599609375 1.9837412109375 5.713348388671875 1.960669921875 Q 5.712982177734375 1.9375986328125 5.712615966796875 1.919654296875 Q 5.712249755859375 1.9017099609375 5.711517333984375 1.8951181640625 L 5.654388427734375 1.8848642578125 L 5.652923583984375 1.8606943359375 L 5.760589599609375 1.8306650390625 L 5.773773193359375 1.8409189453125 Q 5.772308349609375 1.8863291015625 5.771575927734375 1.9288095703125 Q 5.770843505859375 1.9712900390625 5.770843505859375 2.0174326171875 L 5.770111083984375 2.1858896484375 Q 5.770111083984375 2.2232431640625 5.771942138671875 2.2499765625 Q 5.773773193359375 2.2767099609375 5.774505615234375 2.2876962890625 L 5.821380615234375 2.2994150390625 L 5.821380615234375 2.3235849609375 L 5.725433349609375 2.3470224609375 M 5.637542724609375 2.2957529296875 Q 5.658782958984375 2.2957529296875 5.677093505859375 2.28659765625 Q 5.695404052734375 2.2774423828125 5.714447021484375 2.2540048828125 L 5.714447021484375 2.0965341796875 Q 5.700531005859375 2.0716318359375 5.679290771484375 2.0613779296875 Q 5.658050537109375 2.0511240234375 5.636810302734375 2.0511240234375 Q 5.590667724609375 2.0511240234375 5.564666748046875 2.085181640625 Q 5.538665771484375 2.1192392578125 5.538665771484375 2.1734384765625 Q 5.538665771484375 2.2312998046875 5.567596435546875 2.2635263671875 Q 5.596527099609375 2.2957529296875 5.637542724609375 2.2957529296875 M 5.926483154296875 2.3462900390625 Q 5.906707763671875 2.3462900390625 5.893524169921875 2.33347265625 Q 5.880340576171875 2.3206552734375 5.880340576171875 2.3016123046875 Q 5.880340576171875 2.2884287109375 5.886199951171875 2.278541015625 Q 5.892059326171875 2.2686533203125 5.902679443359375 2.2627939453125 Q 5.913299560546875 2.2569345703125 5.926483154296875 2.2569345703125 Q 5.946258544921875 2.2569345703125 5.959442138671875 2.269751953125 Q 5.972625732421875 2.2825693359375 5.972625732421875 2.3016123046875 Q 5.972625732421875 2.3206552734375 5.959442138671875 2.33347265625 Q 5.946258544921875 2.3462900390625 5.926483154296875 2.3462900390625" fill="#212121" fill-rule="nonzero"></path></g></g><defs><clipPath id="SvgjsClipPath119024"><path d=" M 0.5562636028721855 -7.3566730855361335 h 7.191488907536879 v 7.1066730855361335 h -7.191488907536879 Z"></path></clipPath><clipPath id="SvgjsClipPath1190227b4a1454-2d34-440f-8ffc-ea40284eee5e"><path d=" M 0.5562636028721855 -7.3566730855361335 L 7.7477525104090645 -7.3566730855361335 L 7.7477525104090645 -0.25 L 0.5562636028721855 -0.25 Z"></path></clipPath></defs></svg>